<svg xmlns="http://www.w3.org/2000/svg" width="16" height="16"><rect width="15.77" height="15.67" x=".15" y=".2" rx="3" fill="#07337b"/><g transform="scale(1.4) translate(-1.5-1.6)"><path d="m7.908 9.022q.475 1.759 2.225 1.937s1.64.2 2.156-1.625q.281-1.675-.943-2.888l-.526.438q1.141 1.188.772 2.288-.375.894-1.306.975-1.413-.019-1.719-1.581z" stroke-linecap="round" stroke-linejoin="round" stroke-width="4" opacity="1" fill="#0c6df1"/><circle r="1.25" cx="10.191" cy="8.576" fill="#fff" stroke-opacity="0" stroke-width="0" opacity="1"/><circle r=".65" cx="10.194" cy="8.576" fill="#06237b" opacity="1"/><circle r=".201" cx="10.466" cy="8.301" fill="#fff" opacity="1"/></g><path d="M5.46 6.81l2.284 1.693q.194.165.367.028l3.102-2.347q.202-.12.186-.305l0-1.202q-.146-.411-.526-.212l-3.019 2.373-3-2.296q-.442-.234-.575.208l.018 5.736q.04.287.305.318l.53 0q.287-.039.332-.3z" stroke-linecap="round" stroke-linejoin="round" opacity="1" fill="#fff" transform="scale(1.6) translate(-2.7-2.5)"/></svg>